<mxfile host="app.diagrams.net" modified="2023-10-16T09:26:30.124Z" agent="Mozilla/5.0 (Windows NT 10.0; Win64; x64) AppleWebKit/537.36 (KHTML, like Gecko) Chrome/118.0.0.0 Safari/537.36 Edg/118.0.2088.46" etag="Q35lLA6j0cQExa8mwLO_" version="22.0.4" type="github">
  <diagram name="第 1 页" id="vnyYDPuoadzvxE7zFwTo">
    <mxGraphModel dx="946" dy="678" grid="0" gridSize="10" guides="1" tooltips="1" connect="1" arrows="1" fold="1" page="0" pageScale="1" pageWidth="827" pageHeight="1169" math="0" shadow="0">
      <root>
        <mxCell id="0" />
        <mxCell id="1" parent="0" />
      </root>
    </mxGraphModel>
  </diagram>
</mxfile>
